<svg xmlns="http://www.w3.org/2000/svg" width="540" height="124" viewBox="0 0 540 123.8579">
  <defs>
    <style>
      .cls-1 {
        fill: #f08300;
      }
    </style>
  </defs>
  <title>ハイキュー!!</title>
  <g>
    <polygon class="cls-1" points="514.836 96.256 515.445 35.46 489.957 26.847 489.782 90.177 489.814 90.186 489.808 115.437 515.06 123.672 514.858 96.264 514.836 96.256"/>
    <polygon class="cls-1" points="540 30.438 514.879 22.278 514.844 85.332 514.869 85.34 514.793 110.704 539.484 118.778 539.857 93.792 539.888 93.804 540 30.438"/>
    <g>
      <polygon points="492.356 91.494 492.352 113.589 512.49 120.158 512.327 98.105 492.356 91.494"/>
      <polygon points="492.33 88.341 512.304 94.955 512.883 37.28 492.491 30.389 492.33 88.341"/>
    </g>
    <g>
      <polygon points="517.343 108.86 517.41 86.657 537.318 93.376 536.993 115.287 517.343 108.86"/>
      <polygon points="517.388 83.506 537.35 90.259 537.454 32.285 517.421 25.779 517.388 83.506"/>
    </g>
    <g>
      <polygon class="cls-1" points="0 0.423 23.882 123.204 67.733 123.45 43.726 0.91 0 0.423"/>
      <polygon class="cls-1" points="99.475 22.597 55.157 22.115 112.254 123.536 156.651 123.858 99.475 22.597"/>
    </g>
    <polygon class="cls-1" points="228.456 44.552 211.573 0 122.335 53.152 139.105 97.538 170.019 79.205 186.594 123.041 224.805 123.458 201.353 60.623 228.456 44.552"/>
    <polygon class="cls-1" points="350.995 96.317 336.422 57.785 302.638 57.667 300.573 53.192 336.647 53.327 321.901 14.819 282.79 14.658 276.3 0.599 235.039 0.234 241.574 14.485 215.659 14.378 230.596 52.929 259.248 53.036 261.303 57.52 230.234 57.41 244.855 96.123 279.029 96.183 291.096 122.504 332.743 122.898 320.449 96.26 350.995 96.317"/>
    <polygon class="cls-1" points="428.204 83.805 413.17 83.82 398.631 42.58 344.715 42.209 357.273 75.656 375.493 75.652 378.403 83.712 344.13 83.496 358.399 122.03 442.403 122.166 428.204 83.805"/>
    <polygon class="cls-1" points="484.8 47.329 404.307 46.76 417.924 85.057 499.432 86.062 484.8 47.329"/>
    <g>
      <polygon points="3.094 3.002 25.98 120.672 64.638 120.888 41.628 3.431 3.094 3.002"/>
      <polygon points="59.534 24.707 113.747 121.004 152.275 121.282 97.98 25.125 59.534 24.707"/>
    </g>
    <polygon points="221.124 120.872 198.226 59.52 225.319 43.454 210.268 3.738 125.468 54.246 140.413 93.804 171.328 75.472 188.359 120.517 221.124 120.872"/>
    <polygon points="347.31 93.767 334.661 60.323 301.009 60.205 296.59 50.632 332.943 50.769 320.148 17.356 281.159 17.195 274.667 3.129 239.021 2.813 245.546 17.046 219.379 16.937 232.342 50.391 260.883 50.498 265.274 60.078 233.919 59.966 246.614 93.58 280.662 93.641 292.735 119.975 328.75 120.317 316.469 93.71 347.31 93.767"/>
    <polygon points="348.398 44.779 359.035 73.112 377.28 73.108 382.034 86.28 347.793 86.064 360.17 119.49 438.746 119.616 426.434 86.351 411.37 86.366 396.826 45.112 348.398 44.779"/>
    <polygon points="419.691 82.535 407.995 49.329 483.037 49.861 495.736 83.473 419.691 82.535"/>
  </g>
</svg>
