<svg xmlns="http://www.w3.org/2000/svg" xmlns:xlink="http://www.w3.org/1999/xlink" width="500.486" height="150.816" viewBox="0 0 500.486 150.816"><defs><style>.a {fill: none;}.b {fill: #ef8200;}.c {clip-path: url(#a);}</style><clipPath id="a"><rect class="a" width="500.486" height="150.816"/></clipPath></defs><polygon points="481.727 99.061 500.136 105.059 500.417 84.537 481.769 78.258 481.727 99.061"/><polygon points="481.742 75.307 500.445 81.614 500.485 27.319 481.72 21.244 481.742 75.307"/><polygon points="458.308 82.817 458.327 103.511 477.191 109.642 477.015 88.988 458.308 82.817"/><polygon points="458.377 25.587 458.315 60.272 464.927 77.72 458.283 77.645 458.279 79.862 476.993 86.033 477.481 32.017 458.377 25.587"/><polygon points="21.546 110.583 57.751 110.751 36.091 0.769 0 0.401 21.546 110.583"/><polygon points="52.883 20.671 103.744 110.81 139.832 111.038 88.885 21.035 52.883 20.671"/><polygon points="204.309 110.59 182.807 53.149 208.165 38.081 194.03 0.9 114.657 48.277 128.695 85.318 157.63 68.112 173.623 110.286 204.309 110.59"/><polygon points="227.083 13.331 202.576 13.246 214.748 44.568 241.481 44.645 245.6 53.61 216.234 53.536 228.157 85.003 260.045 85.024 271.376 109.683 305.111 109.968 293.582 85.056 322.467 85.084 310.585 53.773 279.069 53.694 274.923 44.733 308.967 44.826 296.954 13.549 260.438 13.43 254.341 0.269 220.959 0 227.083 13.331"/><polygon points="323.439 39.203 333.425 65.728 350.514 65.706 354.978 78.038 322.914 77.869 334.531 109.158 408.127 109.209 396.563 78.058 382.455 78.096 368.797 39.464 323.439 39.203"/><polygon points="390.244 74.494 379.259 43.403 449.544 43.833 461.466 75.301 390.244 74.494"/><polygon class="b" points="137.007 123.148 137.824 127.784 142.152 127.784 146.187 150.669 151.899 150.669 147.864 127.784 152.192 127.784 151.375 123.148 137.007 123.148"/><g class="c"><path class="b" d="M178.0842,128.1493l3.088,17.519c.67,3.797-.192,5.148-3.881,5.148h-6.386c-3.69,0-5.063-1.351-5.733-5.148l-3.088-17.519c-.67-3.796.191-5.147,3.917-5.147h6.385c3.725,0,5.028,1.351,5.698,5.147m-9.705-.511c-.497,0-.649.146-.552.693l3.025,17.156c.097.547.3.693.797.693h3.299c.496,0,.577-.146.48-.693l-3.024-17.156c-.097-.547-.229-.693-.726-.693Z"/><polygon class="b" points="219.029 127.784 214.701 127.784 218.736 150.67 213.024 150.67 208.989 127.784 204.661 127.784 203.843 123.148 218.212 123.148 219.029 127.784"/><polygon class="b" points="250.204 150.67 244.492 150.67 242.446 139.063 237.727 139.063 239.773 150.67 234.062 150.67 229.209 123.149 234.921 123.149 236.916 134.464 241.635 134.464 239.64 123.149 245.35 123.149 250.204 150.67"/><path class="b" d="M270.9651,127.7842h-6.811l3.218,18.25h6.883l.818,4.635h-12.595l-4.853-27.521h12.523Zm1.712,11.315H267.32l-1.947-4.6h6.492Z"/><polygon class="b" points="311.692 127.784 307.364 127.784 311.399 150.67 305.687 150.67 301.652 127.784 297.324 127.784 296.506 123.148 310.875 123.148 311.692 127.784"/><path class="b" d="M337.5832,128.1493l3.089,17.519c.67,3.797-.192,5.148-3.882,5.148h-6.386c-3.689,0-5.062-1.351-5.732-5.148l-3.089-17.519c-.67-3.796.191-5.147,3.917-5.147h6.386c3.724,0,5.027,1.351,5.697,5.147m-9.705-.511c-.496,0-.648.146-.552.693l3.026,17.156c.096.547.299.693.796.693h3.299c.496,0,.577-.146.481-.693l-3.025-17.156c-.096-.547-.229-.693-.725-.693Z"/><path class="b" d="M363.7151,128.0758l1.442,8.177c.669,3.796-.231,4.927-3.956,4.927H357.76l-2.091-4.416h3.405c.497,0,.643-.183.546-.731l-1.326-7.52c-.097-.546-.307-.729-.803-.729H354.05l4.035,22.886h-5.711l-4.853-27.522h10.501c3.76,0,5.024,1.132,5.693,4.928"/></g></svg>
