<?xml version="1.0" encoding="utf-8"?>
<!-- Generator: Adobe Illustrator 25.4.1, SVG Export Plug-In . SVG Version: 6.00 Build 0)  -->
<svg version="1.1" id="Layer_1" xmlns="http://www.w3.org/2000/svg" xmlns:xlink="http://www.w3.org/1999/xlink" x="0px" y="0px"
	 viewBox="0 0 500.5 150.8" style="enable-background:new 0 0 500.5 150.8;" xml:space="preserve">
<style type="text/css">
	.st0{clip-path:url(#SVGID_00000178890483476973400310000012564042330820505768_);}
	.st1{fill:#EF8200;}
</style>
<polygon points="481.7,99.1 500.1,105.1 500.4,84.5 481.8,78.3 "/>
<polygon points="481.7,75.3 500.4,81.6 500.5,27.3 481.7,21.2 "/>
<polygon points="458.3,82.8 458.3,103.5 477.2,109.6 477,89 "/>
<polygon points="458.4,25.6 458.3,60.3 464.9,77.7 458.3,77.6 458.3,79.9 477,86 477.5,32 "/>
<polygon points="21.5,110.6 57.8,110.8 36.1,0.8 0,0.4 "/>
<polygon points="52.9,20.7 103.7,110.8 139.8,111 88.9,21 "/>
<polygon points="204.3,110.6 182.8,53.1 208.2,38.1 194,0.9 114.7,48.3 128.7,85.3 157.6,68.1 173.6,110.3 "/>
<polygon points="227.1,13.3 202.6,13.2 214.7,44.6 241.5,44.6 245.6,53.6 216.2,53.5 228.2,85 260,85 271.4,109.7 305.1,110 
	293.6,85.1 322.5,85.1 310.6,53.8 279.1,53.7 274.9,44.7 309,44.8 297,13.5 260.4,13.4 254.3,0.3 221,0 "/>
<polygon points="323.4,39.2 333.4,65.7 350.5,65.7 355,78 322.9,77.9 334.5,109.2 408.1,109.2 396.6,78.1 382.5,78.1 368.8,39.5 "/>
<polygon points="390.2,74.5 379.3,43.4 449.5,43.8 461.5,75.3 "/>
<g>
	<g>
		<defs>
			<rect id="SVGID_1_" width="500.5" height="150.8"/>
		</defs>
		<clipPath id="SVGID_00000156565854042997561520000003141434542766393253_">
			<use xlink:href="#SVGID_1_"  style="overflow:visible;"/>
		</clipPath>
		<g style="clip-path:url(#SVGID_00000156565854042997561520000003141434542766393253_);">
			<polygon class="st1" points="137,123.1 137.8,127.8 142.2,127.8 146.2,150.7 151.9,150.7 147.9,127.8 152.2,127.8 151.4,123.1 
							"/>
			<path class="st1" d="M178.1,128.1l3.1,17.5c0.7,3.8-0.2,5.1-3.9,5.1h-6.4c-3.7,0-5.1-1.4-5.7-5.1l-3.1-17.5
				c-0.7-3.8,0.2-5.1,3.9-5.1h6.4C176.1,123,177.4,124.4,178.1,128.1 M168.4,127.6c-0.5,0-0.6,0.1-0.6,0.7l3,17.2
				c0.1,0.5,0.3,0.7,0.8,0.7h3.3c0.5,0,0.6-0.1,0.5-0.7l-3-17.2c-0.1-0.5-0.2-0.7-0.7-0.7L168.4,127.6z"/>
			<polygon class="st1" points="219,127.8 214.7,127.8 218.7,150.7 213,150.7 209,127.8 204.7,127.8 203.8,123.1 218.2,123.1 			"/>
			<polygon class="st1" points="250.2,150.7 244.5,150.7 242.4,139.1 237.7,139.1 239.8,150.7 234.1,150.7 229.2,123.1 234.9,123.1 
				236.9,134.5 241.6,134.5 239.6,123.1 245.4,123.1 			"/>
			<path class="st1" d="M271,127.8h-6.8l3.2,18.3h6.9l0.8,4.6h-12.6l-4.9-27.5h12.5L271,127.8z M272.7,139.1h-5.4l-1.9-4.6h6.5
				L272.7,139.1z"/>
			<polygon class="st1" points="311.7,127.8 307.4,127.8 311.4,150.7 305.7,150.7 301.7,127.8 297.3,127.8 296.5,123.1 310.9,123.1 
							"/>
			<path class="st1" d="M337.6,128.1l3.1,17.5c0.7,3.8-0.2,5.1-3.9,5.1h-6.4c-3.7,0-5.1-1.4-5.7-5.1l-3.1-17.5
				c-0.7-3.8,0.2-5.1,3.9-5.1h6.4C335.6,123,336.9,124.4,337.6,128.1 M327.9,127.6c-0.5,0-0.6,0.1-0.6,0.7l3,17.2
				c0.1,0.5,0.3,0.7,0.8,0.7h3.3c0.5,0,0.6-0.1,0.5-0.7l-3-17.2c-0.1-0.5-0.2-0.7-0.7-0.7L327.9,127.6z"/>
			<path class="st1" d="M363.7,128.1l1.4,8.2c0.7,3.8-0.2,4.9-4,4.9h-3.4l-2.1-4.4h3.4c0.5,0,0.6-0.2,0.5-0.7l-1.3-7.5
				c-0.1-0.5-0.3-0.7-0.8-0.7H354l4,22.9h-5.7l-4.9-27.5H358C361.8,123.1,363,124.3,363.7,128.1"/>
		</g>
	</g>
</g>
</svg>
