<svg xmlns="http://www.w3.org/2000/svg" width="160" height="698" viewBox="0 0 160 698"><defs><style>.cls-1 {fill: rgba(255, 255, 255, .25);}</style></defs><g><polygon class="cls-1" points="72.89 598.151 100.868 605.658 66.983 669.59 39.005 662.075 72.89 598.151"/><polygon class="cls-1" points="37.229 665.432 65.21 672.938 52.139 697.597 24.157 690.09 37.229 665.432"/><polygon class="cls-1" points="114.721 598.151 142.699 605.658 108.816 669.586 80.838 662.079 114.721 598.151"/><polygon class="cls-1" points="79.059 665.428 107.037 672.933 93.975 697.601 65.988 690.09 79.059 665.428"/><polygon class="cls-1" points="23.991 129.715 0 0 41.766 0.379 65.758 130.092 23.991 129.715"/><polygon class="cls-1" points="160 130.085 117.97 129.702 59.991 23.256 102.024 23.635 160 130.08 160 130.085"/><polygon class="cls-1" points="92.987 191.528 117.436 259.227 81.544 258.902 63.627 209.284 30.368 229.402 13.923 185.238 105.878 129.62 122.322 173.779 92.987 191.528"/><polygon class="cls-1" points="141.193 474.842 108.666 474.545 71.853 474.212 58.551 436.802 95.365 437.139 90.503 423.476 71.04 423.299 59.72 391.471 112.032 391.944 127.888 437.432 143.892 437.576 157.195 474.985 141.193 474.842"/><polygon class="cls-1" points="128.937 312.978 89.915 312.624 94.349 322.644 130.36 322.97 144.144 360.383 110.913 360.083 123.968 389.603 84.835 389.246 71.779 359.725 35.242 359.396 21.459 321.982 55.221 322.287 50.777 312.267 20.036 311.991 6.252 274.577 34.217 274.828 27.316 259.227 66.452 259.58 73.351 275.187 115.154 275.564 128.937 312.978"/><rect class="cls-1" x="60.4844" y="480.7441" width="39.2025" height="112.2338"/></g></svg>